<?xml version="1.0" standalone="no"?>
<!DOCTYPE svg PUBLIC "-//W3C//DTD SVG 20010904//EN"
 "http://www.w3.org/TR/2001/REC-SVG-20010904/DTD/svg10.dtd">
<svg version="1.0" xmlns="http://www.w3.org/2000/svg"
 width="260.000000pt" height="260.000000pt" viewBox="0 0 260.000000 260.000000"
 preserveAspectRatio="xMidYMid meet">
<metadata>
Created by potrace 1.11, written by Peter Selinger 2001-2013
</metadata>
<g transform="translate(0.000000,260.000000) scale(0.100000,-0.100000)"
fill="#000000" stroke="none">
<path d="M1158 2529 c-782 -96 -1280 -880 -1029 -1620 115 -341 375 -617 706
-750 270 -108 573 -118 848 -28 674 220 1023 972 758 1634 -154 383 -505 672
-911 749 -105 20 -275 27 -372 15z m479 -984 c39 -12 62 -27 92 -61 45 -51 56
-88 49 -170 -6 -68 -47 -129 -109 -162 -89 -48 -210 -11 -262 80 -32 56 -39
99 -26 156 21 96 96 162 195 171 6 1 33 -6 61 -14z m-1116 -126 c4 -94 10
-133 22 -152 31 -48 93 -48 124 0 14 21 19 56 23 152 l5 126 33 3 c56 6 62 -7
62 -132 0 -132 -10 -174 -53 -223 -75 -85 -193 -85 -264 2 -40 48 -53 102 -53
220 0 119 8 137 58 133 l37 -3 6 -126z m483 14 l86 -116 0 99 c0 118 9 137 60
132 l35 -3 0 -200 0 -200 -40 0 c-39 0 -42 2 -120 107 -44 59 -83 107 -87 107
-4 1 -9 -47 -10 -106 l-3 -108 -33 -3 c-60 -6 -62 1 -62 202 0 199 2 206 56
206 30 0 40 -10 118 -117z m324 105 c8 -8 12 -66 12 -194 0 -201 -2 -208 -62
-202 l-33 3 -3 190 c-1 104 0 195 2 202 7 16 68 17 84 1z m662 -105 l85 -113
3 102 c1 56 8 108 14 115 14 17 62 17 77 -1 8 -9 11 -72 9 -202 l-3 -189 -41
-3 -41 -3 -84 113 -84 112 -2 -89 c-4 -134 -5 -137 -56 -133 l-42 3 -3 194
c-3 212 -2 213 53 209 25 -3 43 -20 115 -115z m-892 -397 c13 -12 13 -18 2
-30 -9 -12 -23 -14 -52 -9 -54 8 -48 -16 7 -35 53 -17 65 -29 65 -64 0 -43
-15 -65 -54 -78 -63 -20 -140 30 -103 67 14 14 17 14 38 -1 31 -21 61 -21 57
1 -2 9 -21 22 -44 30 -29 10 -45 22 -53 42 -15 35 0 78 31 91 30 13 88 5 106
-14z m442 -67 l33 -71 38 81 c35 75 40 81 59 71 29 -15 25 -34 -28 -135 -67
-128 -76 -127 -144 10 -51 103 -52 107 -34 121 26 19 36 8 76 -77z m-815 56
c0 -18 -8 -20 -63 -23 -53 -3 -63 -6 -60 -20 2 -12 15 -18 46 -20 37 -3 42 -6
42 -28 0 -22 -4 -24 -45 -24 l-45 0 0 -46 c0 -44 -1 -45 -27 -42 l-28 3 -3 99
c-1 55 0 106 2 113 4 11 27 13 93 11 80 -3 88 -5 88 -23z m205 0 c0 -24 -3
-25 -60 -25 -53 0 -60 -2 -60 -19 0 -16 8 -20 43 -23 34 -2 42 -7 42 -23 0
-16 -8 -21 -42 -23 -33 -2 -43 -7 -43 -21 0 -14 7 -16 35 -13 56 7 85 -5 85
-33 0 -25 -1 -25 -90 -25 l-90 0 0 115 0 115 90 0 c89 0 90 0 90 -25z m430 6
c0 -16 -8 -20 -42 -23 l-43 -3 -3 -92 c-3 -91 -3 -93 -27 -93 -24 0 -24 2 -27
93 l-3 92 -35 3 c-39 4 -56 15 -46 31 5 7 49 11 117 11 101 0 109 -1 109 -19z
m70 -96 l0 -115 -25 0 -25 0 0 115 0 115 25 0 25 0 0 -115z m460 15 c27 -55
50 -104 50 -109 0 -6 -9 -15 -20 -21 -18 -9 -23 -7 -38 19 -15 27 -23 31 -60
31 -35 0 -44 -4 -54 -24 -13 -31 -31 -38 -52 -23 -15 11 -12 23 33 120 66 141
74 141 141 7z m121 18 c1 -46 1 -86 0 -90 0 -5 21 -8 48 -8 49 0 79 -18 66
-40 -3 -5 -41 -10 -86 -10 l-79 0 0 115 0 115 25 0 c25 0 25 -1 26 -82z"/>
<path d="M1543 1445 c-43 -18 -63 -52 -63 -105 1 -48 10 -66 50 -93 39 -27 77
-22 116 17 29 29 34 41 34 79 0 79 -69 130 -137 102z"/>
<path d="M1806 935 c-4 -10 1 -15 14 -15 13 0 18 5 14 15 -4 8 -10 15 -14 15
-4 0 -10 -7 -14 -15z"/>
</g>
</svg>
